<svg width="23" height="23" viewBox="0 0 23 23" fill="none" xmlns="http://www.w3.org/2000/svg">
<path d="M11.5 0C5.15838 0 0 5.12712 0 11.4303C0 17.7335 5.15838 22.8607 11.5 22.8607C17.8417 22.8607 23 17.7335 23 11.4303C23 5.12712 17.8417 0 11.5 0ZM22.166 11.568H17.6047C17.6047 11.5116 17.6075 11.4551 17.6075 11.3973C17.6075 9.43622 17.3387 7.60874 16.8649 6.02502C17.9705 5.70966 18.9695 5.29513 19.8161 4.79523C21.2875 6.61306 22.1715 8.91979 22.1715 11.4303C22.1687 11.4758 22.166 11.5226 22.166 11.568ZM19.7703 18.1191C18.921 17.6275 17.922 17.2212 16.8191 16.91C17.2376 15.5631 17.5036 14.0345 17.5812 12.393H22.123C21.9263 14.5537 21.0769 16.5272 19.7703 18.1191ZM0.87705 12.3943H5.35236C5.42857 14.0249 5.69321 15.5439 6.1061 16.8838C5.01429 17.1827 4.02224 17.5752 3.1729 18.0503C1.89958 16.4693 1.07103 14.522 0.87705 12.3943ZM6.18507 12.3943H11.0844V16.209C9.62954 16.2311 8.21767 16.3936 6.91664 16.6828C6.52038 15.4062 6.26266 13.9505 6.18507 12.3943ZM6.15875 11.3973C6.15875 9.52573 6.41923 7.77125 6.87369 6.25776C8.18442 6.55523 9.61153 6.72186 11.0844 6.74389V11.568H6.16152C6.16152 11.5116 6.15875 11.4551 6.15875 11.3973ZM16.7748 11.3973C16.7748 11.4551 16.7734 11.5102 16.772 11.568H11.9157V6.74114C13.3677 6.70809 14.7685 6.53457 16.0529 6.23573C16.5115 7.75334 16.7748 9.51609 16.7748 11.3973ZM11.9157 5.91485V1.16094C13.5118 1.42122 14.9099 3.05451 15.7911 5.44937C14.5898 5.72205 13.2777 5.88318 11.9157 5.91485ZM11.0844 5.9176C9.7002 5.89557 8.36315 5.74271 7.13556 5.47141C8.02785 3.03248 9.45496 1.37715 11.0844 1.1513V5.9176ZM11.0844 17.0353V21.6446C9.48683 21.4229 8.08327 19.8296 7.18821 17.4691C8.40333 17.2047 9.72237 17.056 11.0844 17.0353ZM11.9157 17.0367C13.2569 17.0684 14.5496 17.224 15.7384 17.4884C14.8544 19.8048 13.4814 21.3775 11.9157 21.6322V17.0367ZM11.9157 16.2104V12.3943H16.7499C16.6723 13.9601 16.4118 15.4241 16.0114 16.7048C14.7353 16.4128 13.3497 16.2435 11.9157 16.2104ZM19.2577 4.16174C18.4915 4.5983 17.5937 4.96049 16.603 5.24142C15.9213 3.36162 14.9306 1.89771 13.7515 1.06591C15.8977 1.52588 17.8043 2.62898 19.2577 4.16174ZM9.15014 1.08932C7.97935 1.92938 6.997 3.39467 6.32086 5.27034C5.33989 4.99905 4.44621 4.64787 3.68001 4.22647C5.11959 2.68406 7.01363 1.56857 9.15014 1.08932ZM3.12995 4.86684C3.97513 5.35022 4.96718 5.74959 6.06176 6.05394C5.59206 7.63078 5.32742 9.44861 5.32742 11.3973C5.32742 11.4551 5.32881 11.5102 5.33019 11.568H0.834098C0.834098 11.5226 0.829941 11.4772 0.829941 11.4303C0.831327 8.95284 1.69314 6.67366 3.12995 4.86684ZM3.72989 18.6865C4.50025 18.2734 5.39254 17.9318 6.37074 17.6661C7.07182 19.5486 8.08604 21.0015 9.29008 21.8044C7.1217 21.3485 5.19579 20.2344 3.72989 18.6865ZM13.6158 21.8237C14.8253 21.029 15.8465 19.5762 16.5531 17.6922C17.541 17.9663 18.4388 18.3216 19.2092 18.7499C17.7294 20.2881 15.7924 21.3871 13.6158 21.8237Z" fill="#F9E897"/>
</svg>
